<?xml version="1.0" encoding="UTF-8"?>
<svg id="Layer_1" xmlns="http://www.w3.org/2000/svg" xmlns:xlink="http://www.w3.org/1999/xlink" viewBox="39 39 211 135">
  <defs>
    <style>
      .cls-1 {
        fill: #00447c;
      }

      .cls-2 {
        fill: url(#radial-gradient);
      }
    </style>
    <radialGradient id="radial-gradient" cx="139.73" cy="149.94" fx="139.73" fy="149.94" r="73.33" gradientUnits="userSpaceOnUse">
      <stop offset="0" stop-color="#00adef"/>
      <stop offset=".15" stop-color="#00a4e5" stop-opacity="1"/>
      <stop offset=".4" stop-color="#008ecd" stop-opacity=".99"/>
      <stop offset=".71" stop-color="#006aa5" stop-opacity=".99"/>
      <stop offset=".99" stop-color="#00447c" stop-opacity=".98"/>
    </radialGradient>
  </defs>
  <g>
    <path class="cls-1" d="M63.44,111.99c2.24-3.99,4.48-7.94,6.72-11.85,2.82,9.29,5.65,18.49,8.47,27.61,8.85-1.44,17.78-2.58,26.78-3.41-6.42-16.96-12.82-34.06-19.21-51.46,6.43-10.73,12.87-21.23,19.3-31.58,0-.84,0-1.68,0-2.52-7.7,0-15.41,0-23.11,0-6.3,12.08-12.61,24.4-18.9,37.08.02-12.36.04-24.72.05-37.08-8.3,0-16.6,0-24.91,0,0,32.6,0,65.21,0,97.81,8.17-2.31,16.43-4.31,24.77-6.04,0-6.19.02-12.38.03-18.57Z"/>
    <path class="cls-1" d="M105.41,106.62c-.01,7,1.28,12.8,3.86,17.39,10.14-.84,20.37-1.29,30.67-1.36,10.2-.06,20.33.26,30.37.96,2.79-4.66,4.18-10.43,4.17-17.33-.03-22.5-.06-45-.08-67.5-8.33,0-16.65,0-24.98,0,0,21.9.01,43.81.02,65.71,0,4.69-.8,8.2-2.42,10.54-1.62,2.34-4.06,3.51-7.34,3.53-3.13.02-5.47-1.24-7.03-3.79-1.56-2.56-2.34-6.39-2.34-11.51.01-21.49.03-42.98.04-64.48-7.75,0-15.51,0-23.26,0-.52,0-1.04,0-1.56,0,0,.84,0,1.68,0,2.52-.03,21.77-.06,43.54-.1,65.32Z"/>
    <path class="cls-1" d="M249.36,116.57c0-7.26-1.99-13.25-5.97-17.81-3.16-3.62-7.59-6.34-13.29-8.14,5.7-.95,10.13-2.92,13.29-5.98,3.98-3.86,5.98-9.47,5.98-16.74,0-8.91-3.25-16.12-9.76-21.36-6.51-5.25-15.3-7.75-26.37-7.75-10.92,0-21.84,0-32.76,0,.02,16.1.05,32.19.07,48.29,0,.59,0,1.17,0,1.76.02,11.87.03,23.75.05,35.62,20.6,1.97,40.81,5.52,60.49,10.76,5.52-4.16,8.28-10.41,8.28-18.65ZM222.95,118.14c-2.56,1.58-5.78,2.16-9.66,1.78-2.61-.25-5.23-.49-7.85-.72-.01-6.52-.02-13.03-.03-19.55,2.62.17,5.23.35,7.85.54,3.84.28,7.05,1.44,9.64,3.48,2.59,2.04,3.89,4.61,3.89,7.64,0,2.96-1.27,5.23-3.83,6.81ZM222.85,76.49c-2.59,1.69-5.8,2.42-9.63,2.23-2.62-.13-5.23-.24-7.85-.35-.01-6.52-.02-13.03-.03-19.55,2.62.06,5.23.12,7.85.18,3.89.09,7.11,1.1,9.68,3.04,2.57,1.94,3.85,4.4,3.86,7.36,0,3.04-1.29,5.41-3.87,7.09Z"/>
  </g>
  <path class="cls-2" d="M207.41,137.06c3.27,1.13,5.82,1.69,8.01,1.78,8.73-.11,17.06.59,24.91,2.24.14.03.33.06.47.09q-.46-.33-2.76-1c-1.08-.31-2.17-.61-3.26-.9-3.73-.87-7.44-1.79-11.12-2.75-18.68-3.87-19.31-4.14-34.56-6.31-2.7-.36-5.46-.63-8.26-.8-.24,0-.56,0-.79.05.62.23.73.28,2.68.67,8.23,1.61,16.45,3.91,24.67,6.93M169.27,142c2.99,1.3,5.64,1.78,8.07,1.46,9.8-2.06,19.23-3.5,28.27-4.18.28-.04.66-.13.91-.25.03-.61.03-.85-2.39-1.85-8.16-3.08-16.32-5.43-24.46-7.1-2.95-.56-5.48-.86-7.75-.91-8.24.05-16.9.8-25.93,2.14-.29.06-.68.17-.95.29-.04.13-.1.29-.14.42.42.47.71.6,2.02,1.05,7.3,2.26,14.75,5.23,22.36,8.92M126.94,153.91c2.8,1.53,5.46,1.96,8.11,1.33,10.79-3.61,21.24-6.73,31.32-9.24,1.97-.71,1.69-1.77-.78-3.17-7.56-3.76-14.94-6.8-22.15-9.12-2.72-.76-5.19-.98-7.58-.66-9.31,1.77-18.99,4.1-29,6.92-2.01.73-2.02,1.6,0,2.74,6.36,3.04,13.03,6.78,20.08,11.21M80.9,171.4c2.62,1.77,5.3,2.21,8.13,1.31,11.61-4.87,22.95-9.31,33.98-13.29,2.22-1.07,2.17-2.42-.11-4.14-6.99-4.5-13.6-8.32-19.87-11.43-2.42-1.01-4.82-1.21-7.36-.6-10.25,3.16-20.81,6.77-31.63,10.8-2.26,1.04-2.56,2.21-.9,3.69,5.36,3.89,11.26,8.46,17.76,13.66M129.95,129.06c2.88.42,5.22.51,7.35.31,8.73-1.14,17.08-1.71,25.02-1.59.24,0,.57-.01.81-.05-.63-.13-.76-.15-2.66-.3-.93-.07-1.86-.13-2.79-.18-4.03-.1-8.05-.26-12.06-.47-16.77-.06-17.4-.18-30.5.47-2.72.2-5.44.38-8.16.53.69-.01,1.37-.04,2.05-.07,6.86-.25,13.83.21,20.93,1.36M92.46,136.85c2.37.65,4.67.73,7,.24,9.69-2.57,19.06-4.68,28.06-6.23.71-.16.87-.2,1.13-.46-.27-.45-.33-.54-1.94-.87-6.99-1.22-13.84-1.73-20.56-1.54-.81.03-3.27.13-6.67.48-7.64.86-15.6,2.2-23.84,3.96-.69.17-.83.21-1.15.38,0,.07,0,.16,0,.22.35.1.83.2,1.19.24,5.32.46,10.9,1.66,16.78,3.58M51.47,149.85c1.9.94,4.05,1.04,6.55.31,10.47-3.77,20.7-7.13,30.61-10.04,2.01-.73,2.07-1.5.23-2.29-5.76-1.99-11.22-3.27-16.39-3.8-1.95-.13-3.86.04-6.05.51-8.43,2.07-17.11,4.54-25.97,7.39-1.89.69-2.27,1.22-1.21,1.74,3.6,1.32,7.67,3.39,12.22,6.18"/>
</svg>
